<mxfile host="www.draw.io" modified="2019-11-17T19:34:43.256Z" agent="Mozilla/5.0 (Windows NT 10.0; Win64; x64) AppleWebKit/537.36 (KHTML, like Gecko) Chrome/78.0.3904.97 Safari/537.36" etag="_GTjFBCAXFIt1xm_Cjsu" version="12.2.6" type="github" pages="1">
  <diagram id="2sOhBh3gd_j9B6hoKRWi" name="Page-1">
    <mxGraphModel dx="1024" dy="566" grid="1" gridSize="10" guides="1" tooltips="1" connect="1" arrows="1" fold="1" page="1" pageScale="1" pageWidth="827" pageHeight="1169" math="0" shadow="0">
      <root>
        <mxCell id="0"/>
        <mxCell id="1" parent="0"/>
        <mxCell id="YYGnppyjWI0-A-b7zJ5X-2" value="Game" style="rounded=0;whiteSpace=wrap;html=1;" parent="1" vertex="1">
          <mxGeometry x="20" y="60" width="50" height="20" as="geometry"/>
        </mxCell>
        <mxCell id="YYGnppyjWI0-A-b7zJ5X-3" value="Entity Manager&lt;br&gt;&lt;br&gt;vector&amp;lt;Entity*&amp;gt; entities&lt;br&gt;&lt;br&gt;Entity* CreateEntity(EntityType type)&lt;br&gt;void DestroyEntity(Entity* type)" style="rounded=0;whiteSpace=wrap;html=1;" parent="1" vertex="1">
          <mxGeometry x="140" y="20" width="220" height="100" as="geometry"/>
        </mxCell>
        <mxCell id="YYGnppyjWI0-A-b7zJ5X-4" value="" style="endArrow=none;dashed=1;html=1;" parent="1" edge="1">
          <mxGeometry width="50" height="50" relative="1" as="geometry">
            <mxPoint x="140" y="50" as="sourcePoint"/>
            <mxPoint x="360" y="50" as="targetPoint"/>
          </mxGeometry>
        </mxCell>
        <mxCell id="YYGnppyjWI0-A-b7zJ5X-5" value="" style="endArrow=none;dashed=1;html=1;entryX=1.005;entryY=0.614;entryDx=0;entryDy=0;entryPerimeter=0;exitX=0;exitY=0.614;exitDx=0;exitDy=0;exitPerimeter=0;" parent="1" source="YYGnppyjWI0-A-b7zJ5X-3" target="YYGnppyjWI0-A-b7zJ5X-3" edge="1">
          <mxGeometry width="50" height="50" relative="1" as="geometry">
            <mxPoint x="150" y="60" as="sourcePoint"/>
            <mxPoint x="370" y="60" as="targetPoint"/>
          </mxGeometry>
        </mxCell>
        <mxCell id="YYGnppyjWI0-A-b7zJ5X-6" value="" style="endArrow=classic;html=1;entryX=0;entryY=0.5;entryDx=0;entryDy=0;exitX=1;exitY=0.5;exitDx=0;exitDy=0;" parent="1" source="YYGnppyjWI0-A-b7zJ5X-2" target="YYGnppyjWI0-A-b7zJ5X-3" edge="1">
          <mxGeometry width="50" height="50" relative="1" as="geometry">
            <mxPoint x="20" y="190" as="sourcePoint"/>
            <mxPoint x="70" y="140" as="targetPoint"/>
          </mxGeometry>
        </mxCell>
        <mxCell id="YYGnppyjWI0-A-b7zJ5X-7" value="1" style="text;html=1;resizable=0;points=[];autosize=1;align=left;verticalAlign=top;spacingTop=-4;" parent="1" vertex="1">
          <mxGeometry x="110" y="50" width="20" height="20" as="geometry"/>
        </mxCell>
        <mxCell id="YYGnppyjWI0-A-b7zJ5X-8" value="Entity&lt;br&gt;&lt;br&gt;Point position&lt;br&gt;EntityType type&lt;br&gt;Sprite* sprite&lt;br&gt;bool tangibility&lt;br&gt;Rect Collision&lt;br&gt;&lt;br&gt;virtual void Update()&lt;br&gt;virtual void Draw()" style="rounded=0;whiteSpace=wrap;html=1;" parent="1" vertex="1">
          <mxGeometry x="413" y="20" width="120" height="150" as="geometry"/>
        </mxCell>
        <mxCell id="YYGnppyjWI0-A-b7zJ5X-9" value="" style="endArrow=classic;html=1;exitX=1;exitY=0.5;exitDx=0;exitDy=0;" parent="1" edge="1">
          <mxGeometry width="50" height="50" relative="1" as="geometry">
            <mxPoint x="360" y="79" as="sourcePoint"/>
            <mxPoint x="413" y="80" as="targetPoint"/>
          </mxGeometry>
        </mxCell>
        <mxCell id="YYGnppyjWI0-A-b7zJ5X-10" value="0..*&lt;br&gt;" style="text;html=1;resizable=0;points=[];autosize=1;align=left;verticalAlign=top;spacingTop=-4;" parent="1" vertex="1">
          <mxGeometry x="383" y="60" width="30" height="20" as="geometry"/>
        </mxCell>
        <mxCell id="YYGnppyjWI0-A-b7zJ5X-15" value="" style="endArrow=none;dashed=1;html=1;" parent="1" edge="1">
          <mxGeometry width="50" height="50" relative="1" as="geometry">
            <mxPoint x="413" y="50" as="sourcePoint"/>
            <mxPoint x="530" y="50" as="targetPoint"/>
          </mxGeometry>
        </mxCell>
        <mxCell id="YYGnppyjWI0-A-b7zJ5X-16" value="" style="endArrow=none;dashed=1;html=1;exitX=0;exitY=0.75;exitDx=0;exitDy=0;entryX=1;entryY=0.75;entryDx=0;entryDy=0;" parent="1" source="YYGnppyjWI0-A-b7zJ5X-8" target="YYGnppyjWI0-A-b7zJ5X-8" edge="1">
          <mxGeometry width="50" height="50" relative="1" as="geometry">
            <mxPoint x="413" y="81.39999999999998" as="sourcePoint"/>
            <mxPoint x="490" y="220" as="targetPoint"/>
          </mxGeometry>
        </mxCell>
        <mxCell id="YYGnppyjWI0-A-b7zJ5X-17" value="Creatures&lt;br&gt;&lt;br&gt;Point speed&lt;br&gt;Point spawn&lt;br&gt;int life&lt;br&gt;&lt;br&gt;void CheckCollision()&lt;br&gt;State CalculateState()" style="rounded=0;whiteSpace=wrap;html=1;" parent="1" vertex="1">
          <mxGeometry x="171" y="200" width="129" height="140" as="geometry"/>
        </mxCell>
        <mxCell id="YYGnppyjWI0-A-b7zJ5X-18" value="" style="endArrow=none;dashed=1;html=1;" parent="1" edge="1">
          <mxGeometry width="50" height="50" relative="1" as="geometry">
            <mxPoint x="170.5" y="230" as="sourcePoint"/>
            <mxPoint x="287.5" y="230" as="targetPoint"/>
          </mxGeometry>
        </mxCell>
        <mxCell id="YYGnppyjWI0-A-b7zJ5X-19" value="" style="endArrow=none;dashed=1;html=1;" parent="1" edge="1">
          <mxGeometry width="50" height="50" relative="1" as="geometry">
            <mxPoint x="170" y="290" as="sourcePoint"/>
            <mxPoint x="291" y="290" as="targetPoint"/>
          </mxGeometry>
        </mxCell>
        <mxCell id="YYGnppyjWI0-A-b7zJ5X-43" style="edgeStyle=orthogonalEdgeStyle;rounded=0;orthogonalLoop=1;jettySize=auto;html=1;exitX=0.5;exitY=0;exitDx=0;exitDy=0;entryX=0.25;entryY=1;entryDx=0;entryDy=0;endArrow=block;endFill=0;" parent="1" source="YYGnppyjWI0-A-b7zJ5X-26" target="YYGnppyjWI0-A-b7zJ5X-17" edge="1">
          <mxGeometry relative="1" as="geometry"/>
        </mxCell>
        <mxCell id="YYGnppyjWI0-A-b7zJ5X-26" value="Player&lt;br&gt;&lt;br&gt;State state_player&lt;br&gt;bool god_mode&lt;br&gt;&lt;br&gt;void HandleInput()" style="rounded=0;whiteSpace=wrap;html=1;" parent="1" vertex="1">
          <mxGeometry x="70" y="390" width="110" height="100" as="geometry"/>
        </mxCell>
        <mxCell id="YYGnppyjWI0-A-b7zJ5X-27" value="" style="endArrow=none;dashed=1;html=1;" parent="1" edge="1">
          <mxGeometry width="50" height="50" relative="1" as="geometry">
            <mxPoint x="60" y="420" as="sourcePoint"/>
            <mxPoint x="177" y="420" as="targetPoint"/>
          </mxGeometry>
        </mxCell>
        <mxCell id="YYGnppyjWI0-A-b7zJ5X-28" value="" style="endArrow=none;dashed=1;html=1;exitX=-0.005;exitY=0.665;exitDx=0;exitDy=0;exitPerimeter=0;entryX=1.002;entryY=0.665;entryDx=0;entryDy=0;entryPerimeter=0;" parent="1" source="YYGnppyjWI0-A-b7zJ5X-26" target="YYGnppyjWI0-A-b7zJ5X-26" edge="1">
          <mxGeometry width="50" height="50" relative="1" as="geometry">
            <mxPoint x="60" y="451.4" as="sourcePoint"/>
            <mxPoint x="137" y="590" as="targetPoint"/>
          </mxGeometry>
        </mxCell>
        <mxCell id="YYGnppyjWI0-A-b7zJ5X-44" style="edgeStyle=orthogonalEdgeStyle;rounded=0;orthogonalLoop=1;jettySize=auto;html=1;exitX=0.5;exitY=0;exitDx=0;exitDy=0;entryX=0.75;entryY=1;entryDx=0;entryDy=0;endArrow=block;endFill=0;" parent="1" source="YYGnppyjWI0-A-b7zJ5X-29" target="YYGnppyjWI0-A-b7zJ5X-17" edge="1">
          <mxGeometry relative="1" as="geometry"/>
        </mxCell>
        <mxCell id="YYGnppyjWI0-A-b7zJ5X-29" value="Enemy&lt;br&gt;&lt;br&gt;State state_enemy&lt;br&gt;" style="rounded=0;whiteSpace=wrap;html=1;" parent="1" vertex="1">
          <mxGeometry x="260" y="390" width="109" height="50" as="geometry"/>
        </mxCell>
        <mxCell id="YYGnppyjWI0-A-b7zJ5X-30" value="" style="endArrow=none;dashed=1;html=1;entryX=1;entryY=0.5;entryDx=0;entryDy=0;exitX=0;exitY=0.5;exitDx=0;exitDy=0;" parent="1" source="YYGnppyjWI0-A-b7zJ5X-29" target="YYGnppyjWI0-A-b7zJ5X-29" edge="1">
          <mxGeometry width="50" height="50" relative="1" as="geometry">
            <mxPoint x="250.5" y="420" as="sourcePoint"/>
            <mxPoint x="367.5" y="420" as="targetPoint"/>
          </mxGeometry>
        </mxCell>
        <mxCell id="YYGnppyjWI0-A-b7zJ5X-56" style="edgeStyle=orthogonalEdgeStyle;rounded=0;orthogonalLoop=1;jettySize=auto;html=1;exitX=0.5;exitY=0;exitDx=0;exitDy=0;entryX=0.5;entryY=1;entryDx=0;entryDy=0;endArrow=block;endFill=0;" parent="1" source="YYGnppyjWI0-A-b7zJ5X-32" target="YYGnppyjWI0-A-b7zJ5X-8" edge="1">
          <mxGeometry relative="1" as="geometry"/>
        </mxCell>
        <mxCell id="YYGnppyjWI0-A-b7zJ5X-32" value="Block" style="rounded=0;whiteSpace=wrap;html=1;" parent="1" vertex="1">
          <mxGeometry x="453.5" y="390" width="39" height="30" as="geometry"/>
        </mxCell>
        <mxCell id="YYGnppyjWI0-A-b7zJ5X-50" style="edgeStyle=orthogonalEdgeStyle;rounded=0;orthogonalLoop=1;jettySize=auto;html=1;exitX=0.5;exitY=0;exitDx=0;exitDy=0;entryX=0.75;entryY=1;entryDx=0;entryDy=0;endArrow=block;endFill=0;" parent="1" source="YYGnppyjWI0-A-b7zJ5X-35" target="YYGnppyjWI0-A-b7zJ5X-8" edge="1">
          <mxGeometry relative="1" as="geometry">
            <mxPoint x="641" y="320" as="targetPoint"/>
            <Array as="points">
              <mxPoint x="711" y="240"/>
              <mxPoint x="503" y="240"/>
            </Array>
          </mxGeometry>
        </mxCell>
        <mxCell id="YYGnppyjWI0-A-b7zJ5X-35" value="Spike" style="rounded=0;whiteSpace=wrap;html=1;" parent="1" vertex="1">
          <mxGeometry x="686" y="390" width="49" height="20" as="geometry"/>
        </mxCell>
        <mxCell id="YYGnppyjWI0-A-b7zJ5X-38" value="" style="endArrow=block;html=1;entryX=0.25;entryY=1;entryDx=0;entryDy=0;exitX=0.5;exitY=0;exitDx=0;exitDy=0;endFill=0;" parent="1" source="YYGnppyjWI0-A-b7zJ5X-17" target="YYGnppyjWI0-A-b7zJ5X-8" edge="1">
          <mxGeometry width="50" height="50" relative="1" as="geometry">
            <mxPoint x="20" y="580" as="sourcePoint"/>
            <mxPoint x="70" y="530" as="targetPoint"/>
            <Array as="points">
              <mxPoint x="236" y="180"/>
              <mxPoint x="443" y="180"/>
            </Array>
          </mxGeometry>
        </mxCell>
        <mxCell id="YYGnppyjWI0-A-b7zJ5X-39" value="1..*" style="text;html=1;resizable=0;points=[];autosize=1;align=left;verticalAlign=top;spacingTop=-4;" parent="1" vertex="1">
          <mxGeometry x="190" y="180" width="30" height="20" as="geometry"/>
        </mxCell>
        <mxCell id="YYGnppyjWI0-A-b7zJ5X-45" value="1" style="text;html=1;resizable=0;points=[];autosize=1;align=left;verticalAlign=top;spacingTop=-4;" parent="1" vertex="1">
          <mxGeometry x="80" y="370" width="20" height="20" as="geometry"/>
        </mxCell>
        <mxCell id="YYGnppyjWI0-A-b7zJ5X-46" value="0..*&lt;br&gt;" style="text;html=1;resizable=0;points=[];autosize=1;align=left;verticalAlign=top;spacingTop=-4;" parent="1" vertex="1">
          <mxGeometry x="330" y="370" width="30" height="20" as="geometry"/>
        </mxCell>
        <mxCell id="YYGnppyjWI0-A-b7zJ5X-51" value="0..*&lt;br&gt;" style="text;html=1;resizable=0;points=[];autosize=1;align=left;verticalAlign=top;spacingTop=-4;" parent="1" vertex="1">
          <mxGeometry x="478" y="370" width="30" height="20" as="geometry"/>
        </mxCell>
        <mxCell id="YYGnppyjWI0-A-b7zJ5X-52" value="0..*&lt;br&gt;" style="text;html=1;resizable=0;points=[];autosize=1;align=left;verticalAlign=top;spacingTop=-4;" parent="1" vertex="1">
          <mxGeometry x="720" y="370" width="30" height="20" as="geometry"/>
        </mxCell>
      </root>
    </mxGraphModel>
  </diagram>
</mxfile>
